TITLE ""
FILE "DISC2Track32.mp3" MP3
  TRACK 01 AUDIO
    TITLE "DISC2Track32_01"
    INDEX 01 00:00:00
  TRACK 02 AUDIO
    TITLE "DISC2Track32_02"
    INDEX 01 00:01:69
  TRACK 03 AUDIO
    TITLE "DISC2Track32_03"
    INDEX 01 00:02:03
  TRACK 04 AUDIO
    TITLE "DISC2Track32_04"
    INDEX 01 00:06:23
  TRACK 05 AUDIO
    TITLE "DISC2Track32_05"
    INDEX 01 00:10:22
  TRACK 06 AUDIO
    TITLE "DISC2Track32_06"
    INDEX 01 00:13:62
  TRACK 07 AUDIO
    TITLE "DISC2Track32_07"
    INDEX 01 00:14:03
  TRACK 08 AUDIO
    TITLE "DISC2Track32_08"
    INDEX 01 00:17:71
  TRACK 09 AUDIO
    TITLE "DISC2Track32_09"
    INDEX 01 00:21:59
  TRACK 10 AUDIO
    TITLE "DISC2Track32_10"
    INDEX 01 00:25:04
  TRACK 11 AUDIO
    TITLE "DISC2Track32_11"
    INDEX 01 00:25:30
  TRACK 12 AUDIO
    TITLE "DISC2Track32_12"
    INDEX 01 00:30:07
  TRACK 13 AUDIO
    TITLE "DISC2Track32_13"
    INDEX 01 00:34:23
  TRACK 14 AUDIO
    TITLE "DISC2Track32_14"
    INDEX 01 00:38:05
  TRACK 15 AUDIO
    TITLE "DISC2Track32_15"
    INDEX 01 00:38:23
  TRACK 16 AUDIO
    TITLE "DISC2Track32_16"
    INDEX 01 00:41:37
  TRACK 17 AUDIO
    TITLE "DISC2Track32_17"
    INDEX 01 00:44:04
  TRACK 18 AUDIO
    TITLE "DISC2Track32_18"
    INDEX 01 00:46:24
  TRACK 19 AUDIO
    TITLE "DISC2Track32_19"
    INDEX 01 00:46:40
  TRACK 20 AUDIO
    TITLE "DISC2Track32_20"
    INDEX 01 00:50:61
  TRACK 21 AUDIO
    TITLE "DISC2Track32_21"
    INDEX 01 00:54:43
  TRACK 22 AUDIO
    TITLE "DISC2Track32_22"
    INDEX 01 00:57:73
  TRACK 23 AUDIO
    TITLE "DISC2Track32_23"
    INDEX 01 00:58:12
  TRACK 24 AUDIO
    TITLE "DISC2Track32_24"
    INDEX 01 01:01:10
  TRACK 25 AUDIO
    TITLE "DISC2Track32_25"
    INDEX 01 01:04:26
  TRACK 26 AUDIO
    TITLE "DISC2Track32_26"
    INDEX 01 01:07:05
  TRACK 27 AUDIO
    TITLE "DISC2Track32_27"
    INDEX 01 01:07:20
  TRACK 28 AUDIO
    TITLE "DISC2Track32_28"
    INDEX 01 01:11:14
  TRACK 29 AUDIO
    TITLE "DISC2Track32_29"
    INDEX 01 01:15:39
  TRACK 30 AUDIO
    TITLE "DISC2Track32_30"
    INDEX 01 01:19:29
  TRACK 31 AUDIO
    TITLE "DISC2Track32_31"
    INDEX 01 01:19:45
  TRACK 32 AUDIO
    TITLE "DISC2Track32_32"
    INDEX 01 01:23:41
  TRACK 33 AUDIO
    TITLE "DISC2Track32_33"
    INDEX 01 01:27:35
  TRACK 34 AUDIO
    TITLE "DISC2Track32_34"
    INDEX 01 01:30:66
  TRACK 35 AUDIO
    TITLE "DISC2Track32_35"
    INDEX 01 01:31:11
  TRACK 36 AUDIO
    TITLE "DISC2Track32_36"
    INDEX 01 01:33:69
  TRACK 37 AUDIO
    TITLE "DISC2Track32_37"
    INDEX 01 01:36:20
  TRACK 38 AUDIO
    TITLE "DISC2Track32_38"
    INDEX 01 01:38:15
  TRACK 39 AUDIO
    TITLE "DISC2Track32_39"
    INDEX 01 01:38:31
  TRACK 40 AUDIO
    TITLE "DISC2Track32_40"
    INDEX 01 01:41:17
  TRACK 41 AUDIO
    TITLE "DISC2Track32_41"
    INDEX 01 01:43:69
  TRACK 42 AUDIO
    TITLE "DISC2Track32_42"
    INDEX 01 01:46:24
